<?xml version="1.0" encoding="UTF-8"?>
<!DOCTYPE svg PUBLIC "-//W3C//DTD SVG 1.1//EN" "http://www.w3.org/Graphics/SVG/1.1/DTD/svg11.dtd">
<svg xmlns="http://www.w3.org/2000/svg" version="1.1" width="1425px" height="794px" style="shape-rendering:geometricPrecision; text-rendering:geometricPrecision; image-rendering:optimizeQuality; fill-rule:evenodd; clip-rule:evenodd" xmlns:xlink="http://www.w3.org/1999/xlink">
<g><path style="opacity:0.993" fill="#eb2653" d="M 115.5,-0.5 C 135.167,-0.5 154.833,-0.5 174.5,-0.5C 274.881,8.34829 369.214,37.1816 457.5,86C 478.213,97.6132 497.047,111.78 514,128.5C 466.004,157.854 429.67,198.188 405,249.5C 378.662,313.003 393.162,364.837 448.5,405C 475.321,422.888 504.321,436.055 535.5,444.5C 535.5,475.5 535.5,506.5 535.5,537.5C 518.585,537.097 502.252,539.93 486.5,546C 480.819,549.173 475.486,552.839 470.5,557C 464.84,563.826 458.84,570.326 452.5,576.5C 440.668,554.166 426.835,533.166 411,513.5C 372.138,467.836 322.638,447.669 262.5,453C 249.791,454.343 237.125,455.676 224.5,457C 245.981,449.584 260.481,435.084 268,413.5C 275.063,393.785 278.23,373.452 277.5,352.5C 272.934,258.257 240.434,175.257 180,103.5C 155.931,76.727 127.431,56.227 94.5,42C 63.4312,30.6041 31.7645,28.4374 -0.5,35.5C -0.5,34.8333 -0.5,34.1667 -0.5,33.5C 35.6236,13.4585 74.2903,2.12513 115.5,-0.5 Z"/></g>
<g><path style="opacity:0.993" fill="#eb2753" d="M 1249.5,-0.5 C 1269.17,-0.5 1288.83,-0.5 1308.5,-0.5C 1349.71,2.12513 1388.38,13.4585 1424.5,33.5C 1424.5,34.1667 1424.5,34.8333 1424.5,35.5C 1383.48,26.3365 1344.48,31.8365 1307.5,52C 1271.56,73.6053 1241.73,101.772 1218,136.5C 1173.88,201.681 1150.05,273.681 1146.5,352.5C 1145.34,378.54 1150.5,403.207 1162,426.5C 1170.58,441.402 1183.08,451.569 1199.5,457C 1186.88,455.676 1174.21,454.343 1161.5,453C 1101.36,447.669 1051.86,467.836 1013,513.5C 997.165,533.166 983.332,554.166 971.5,576.5C 965.16,570.326 959.16,563.826 953.5,557C 943.295,547.701 931.295,542.034 917.5,540C 908.888,538.572 900.221,537.739 891.5,537.5C 892.705,507.18 890.372,477.18 884.5,447.5C 907.746,439.687 930.412,430.187 952.5,419C 979.021,405.486 1000.52,386.319 1017,361.5C 1032.45,333.259 1035.79,303.593 1027,272.5C 1017.46,242.014 1002.46,214.681 982,190.5C 960.743,165.856 936.743,145.189 910,128.5C 928.452,110.528 948.952,95.3616 971.5,83C 1058.57,36.2369 1151.24,8.40352 1249.5,-0.5 Z"/></g>
<g><path style="opacity:0.989" fill="#fefefe" d="M 884.5,447.5 C 890.372,477.18 892.705,507.18 891.5,537.5C 891.5,622.833 891.5,708.167 891.5,793.5C 866.5,793.5 841.5,793.5 816.5,793.5C 816.667,700.166 816.5,606.833 816,513.5C 814.405,454.739 784.239,424.405 725.5,422.5C 688.291,422.196 657.457,435.862 633,463.5C 619.158,486.853 611.825,512.187 611,539.5C 610.5,624.166 610.333,708.833 610.5,793.5C 585.5,793.5 560.5,793.5 535.5,793.5C 535.5,708.167 535.5,622.833 535.5,537.5C 535.5,506.5 535.5,475.5 535.5,444.5C 535.5,419.167 535.5,393.833 535.5,368.5C 557.833,368.5 580.167,368.5 602.5,368.5C 602.333,388.169 602.5,407.836 603,427.5C 631.372,387.383 670.206,364.883 719.5,360C 764.759,354.914 806.425,364.58 844.5,389C 863.659,404.474 876.992,423.974 884.5,447.5 Z"/></g>
</svg>
